Coordinates
version=1
nRows=11
nColumns=63
inDegrees=yes

Units are S.I. units (second, meters, Newtons, ...)
If the header above contains a line with 'inDegrees', this indicates whether rotational values are in degrees (yes) or radians (no).

endheader
time	pelvis_tilt	pelvis_list	pelvis_rotation	pelvis_tx	pelvis_ty	pelvis_tz	hip_flexion_r	hip_adduction_r	hip_rotation_r	knee_angle_r	knee_angle_r_beta	ankle_angle_r	subtalar_angle_r	mtp_angle_r	hip_flexion_l	hip_adduction_l	hip_rotation_l	knee_angle_l	knee_angle_l_beta	ankle_angle_l	subtalar_angle_l	mtp_angle_l	L5_S1_Flex_Ext	L5_S1_Lat_Bending	L5_S1_axial_rotation	L4_L5_Flex_Ext	L4_L5_Lat_Bending	L4_L5_axial_rotation	L3_L4_Flex_Ext	L3_L4_Lat_Bending	L3_L4_axial_rotation	L2_L3_Flex_Ext	L2_L3_Lat_Bending	L2_L3_axial_rotation	L1_L2_Flex_Ext	L1_L2_Lat_Bending	L1_L2_axial_rotation	L1_T12_Flex_Ext	L1_T12_Lat_Bending	L1_T12_axial_rotation	Abs_r3	Abs_r2	Abs_r1	Abs_t1	Abs_t2	neck_flexion	neck_bending	neck_rotation	arm_flex_r	arm_add_r	arm_rot_r	elbow_flex_r	pro_sup_r	wrist_flex_r	wrist_dev_r	arm_flex_l	arm_add_l	arm_rot_l	elbow_flex_l	pro_sup_l	wrist_flex_l	wrist_dev_l
1.881356	2.961983	-1.866746	96.327105	0.265049	0.687846	0.851759	-1.802600	6.028314	7.906896	4.102370	0.071600	26.550117	-12.882812	0.000000	1.738345	-3.360978	-5.812729	11.416583	0.199257	35.337958	4.001753	0.000000	-0.511798	0.443968	0.270998	-0.950460	0.590478	0.287935	-0.840833	1.079465	0.287935	-0.584934	1.079465	0.237123	-0.475256	0.905340	0.220186	-0.292441	0.687707	0.203248	-3.655723	5.022260	1.507208	0.000000	0.000000	13.620182	-1.238155	-4.141955	4.760699	-18.740593	45.001397	26.982942	86.384664	-15.295710	-1.809489	0.120564	-19.812239	31.632059	26.964323	78.115876	-11.444651	-1.144131
1.898305	3.037604	-1.826102	96.256626	0.265348	0.688100	0.851655	-1.778520	6.119322	8.049800	4.123137	0.071962	26.548275	-13.096923	0.000000	1.844682	-3.435376	-5.576227	11.652467	0.203374	35.344796	3.414994	0.000000	-0.513924	0.456328	0.282915	-0.954408	0.606917	0.300597	-0.844325	1.109516	0.300597	-0.587363	1.109516	0.247551	-0.477230	0.930544	0.229869	-0.293656	0.706852	0.212186	-3.670906	5.162076	1.573490	0.000000	0.000000	13.474110	-1.644551	-3.924682	4.937894	-18.836795	46.220304	26.488745	86.137020	-15.974568	-2.460857	0.234671	-19.911731	31.762888	26.984416	79.080781	-11.564433	-0.451640
1.915254	3.106935	-1.781485	96.188835	0.265665	0.688360	0.851477	-1.762563	6.205246	8.136373	4.140027	0.072257	26.588892	-13.169191	0.000000	1.928525	-3.490215	-5.179775	11.866902	0.207117	35.298551	2.630822	0.000000	-0.517618	0.467095	0.307902	-0.961268	0.621236	0.327146	-0.850394	1.135694	0.327146	-0.591585	1.135694	0.269414	-0.480660	0.952500	0.250170	-0.295767	0.723530	0.230927	-3.697291	5.283870	1.712459	0.000000	0.000000	13.329218	-2.100650	-3.856788	5.068503	-18.942129	47.372958	26.048052	85.921257	-16.750566	-3.091771	0.472182	-20.047356	32.361807	26.947961	79.796774	-11.688879	0.147754
1.932203	3.165503	-1.736262	96.099144	0.266040	0.688613	0.851249	-1.750509	6.284114	8.299730	4.164152	0.072678	26.622589	-13.266729	0.000000	1.983734	-3.530244	-4.739625	12.050780	0.210326	35.220107	1.786121	0.000000	-0.523587	0.475683	0.344737	-0.972353	0.632659	0.366283	-0.860201	1.156576	0.366283	-0.598408	1.156576	0.301645	-0.486203	0.970013	0.280098	-0.299178	0.736833	0.258552	-3.739929	5.381023	1.917322	0.000000	0.000000	13.186675	-2.551187	-3.899998	5.169472	-19.055097	48.439125	25.664236	85.749626	-17.593665	-3.701431	0.778955	-20.208226	33.178757	26.893812	80.383461	-11.767686	0.656876
1.949153	3.219084	-1.694283	95.990568	0.266453	0.688856	0.851014	-1.728256	6.360971	8.466604	4.216556	0.073593	26.662186	-13.309626	0.000000	2.016775	-3.563809	-4.291652	12.203804	0.212997	35.119780	0.940266	0.000000	-0.531558	0.483178	0.393766	-0.987157	0.642627	0.418377	-0.873297	1.174800	0.418377	-0.607518	1.174800	0.344546	-0.493605	0.985297	0.319935	-0.303732	0.748443	0.295325	-3.796868	5.465811	2.190011	0.000000	0.000000	13.037098	-2.963651	-4.057512	5.213489	-19.170033	49.269214	25.363354	85.637284	-18.427377	-4.259717	1.179939	-20.400052	34.366902	26.814156	80.553915	-11.846288	0.994532
1.966102	3.275081	-1.668766	95.903101	0.266826	0.689064	0.850821	-1.663957	6.438085	8.467840	4.332978	0.075625	26.744888	-13.146977	0.000000	2.053574	-3.601136	-3.873461	12.335145	0.215289	35.013486	0.188485	0.000000	-0.539820	0.490818	0.442252	-1.002500	0.652788	0.469893	-0.886871	1.193375	0.469893	-0.616961	1.193375	0.386971	-0.501277	1.000876	0.359330	-0.308453	0.760277	0.331689	-3.855882	5.552231	2.459673	0.000000	0.000000	12.891178	-3.295891	-4.257687	5.208081	-19.288734	49.839266	25.156964	85.575006	-19.232571	-4.754669	1.614368	-20.588413	35.637944	26.737336	80.504089	-11.875634	1.191821
1.983051	3.320338	-1.657731	95.814458	0.267196	0.689232	0.850642	-1.584035	6.509984	8.616711	4.469985	0.078016	26.738778	-13.221000	0.000000	2.082565	-3.626762	-3.462444	12.434842	0.217029	34.896531	-0.521118	0.000000	-0.548286	0.496474	0.489358	-1.018223	0.660310	0.519943	-0.900780	1.207126	0.519943	-0.626637	1.207126	0.428189	-0.509139	1.012409	0.397604	-0.313291	0.769038	0.367019	-3.916355	5.616208	2.721664	0.000000	0.000000	12.756266	-3.525088	-4.476940	5.179328	-19.405206	50.220889	25.027943	85.528749	-19.978511	-5.175980	1.982936	-20.742833	36.527141	26.742450	80.601444	-11.813859	1.385204
2.000000	3.356032	-1.665246	95.755383	0.267509	0.689358	0.850483	-1.476396	6.571226	8.691263	4.645362	0.081077	26.718900	-13.276904	0.000000	2.117105	-3.641836	-3.054385	12.512273	0.218380	34.772133	-1.160606	0.000000	-0.555018	0.500210	0.531206	-1.030725	0.665279	0.564407	-0.911840	1.216211	0.564407	-0.634331	1.216211	0.464805	-0.515390	1.020028	0.431605	-0.317138	0.774825	0.398405	-3.964441	5.658476	2.954410	0.000000	0.000000	12.636150	-3.660302	-4.720541	5.103705	-19.508085	50.329939	24.978784	85.526095	-20.623704	-5.514383	2.317457	-20.870838	37.235689	26.794521	80.540724	-11.702583	1.541078
2.016949	3.365436	-1.688122	95.671384	0.267847	0.689444	0.850316	-1.354619	6.600576	8.674548	4.846040	0.084579	26.714093	-13.210020	0.000000	2.142307	-3.633559	-2.737313	12.564084	0.219285	34.642305	-1.693799	0.000000	-0.560203	0.499401	0.579135	-1.040353	0.664203	0.615331	-0.920357	1.214243	0.615331	-0.640256	1.214243	0.506743	-0.520204	1.018378	0.470547	-0.320100	0.773572	0.434351	-4.001473	5.649321	3.220974	0.000000	0.000000	12.539768	-3.715802	-5.009823	4.958635	-19.574453	50.088071	24.999182	85.590098	-21.124193	-5.777410	2.616847	-20.974740	37.779185	26.881295	80.139735	-11.517005	1.625548
2.033898	3.368348	-1.726362	95.624471	0.268132	0.689478	0.850142	-1.226115	6.627612	8.698112	5.052149	0.088177	26.649917	-13.312532	0.000000	2.174672	-3.623253	-2.455341	12.603820	0.219978	34.521214	-2.102359	0.000000	-0.562017	0.496553	0.617247	-1.043722	0.660416	0.655825	-0.923338	1.207319	0.655825	-0.642329	1.207319	0.540091	-0.521889	1.012571	0.501513	-0.321136	0.769161	0.462935	-4.014431	5.617107	3.432944	0.000000	0.000000	12.477527	-3.693058	-5.255630	4.799211	-19.625956	49.752901	25.054464	85.685183	-21.542846	-5.971368	2.845383	-21.031998	38.005454	27.012641	79.705130	-11.296841	1.777115
2.050847	3.348876	-1.787507	95.575145	0.268429	0.689448	0.849982	-1.075883	6.631388	8.708083	5.276778	0.092097	26.589716	-13.428389	0.000000	2.225744	-3.591377	-2.204214	12.645974	0.220714	34.399174	-2.460567	0.000000	-0.559894	0.489351	0.657904	-1.039779	0.650837	0.699023	-0.919849	1.189809	0.699023	-0.639903	1.189809	0.575666	-0.519917	0.997885	0.534547	-0.319923	0.758005	0.493428	-3.999265	5.535640	3.659067	0.000000	0.000000	12.458877	-3.646467	-5.519840	4.600388	-19.651434	49.277586	25.147575	85.891601	-21.924957	-6.087893	3.056350	-21.065641	38.133438	27.131847	79.156776	-11.056632	1.856496
